<svg width="361" height="361" viewBox="0 0 361 361" fill="none" xmlns="http://www.w3.org/2000/svg">
<path d="M156.261 0.446461C70.0944 0.446461 0 70.5408 0 156.708C0 242.875 70.0944 312.969 156.261 312.969C182.602 312.969 208.497 306.719 230.374 294.664C232.126 296.773 234.069 298.716 236.178 300.468L280.824 345.114C284.946 349.753 289.973 353.5 295.597 356.126C301.22 358.751 307.32 360.2 313.523 360.383C319.726 360.565 325.902 359.478 331.669 357.188C337.437 354.897 342.676 351.452 347.064 347.064C351.452 342.676 354.897 337.437 357.188 331.669C359.478 325.902 360.565 319.726 360.383 313.523C360.2 307.32 358.751 301.22 356.126 295.597C353.5 289.974 349.753 284.946 345.114 280.824L300.468 236.178C298.293 234.002 295.9 232.057 293.325 230.374C305.379 208.497 312.969 183.049 312.969 156.261C312.969 70.0944 242.875 0 156.708 0L156.261 0.446461ZM156.261 45.0925C218.319 45.0925 267.877 94.6497 267.877 156.708C267.877 186.174 257.161 213.408 238.41 233.499C237.964 233.946 237.517 234.392 237.071 234.838C234.962 236.591 233.019 238.534 231.267 240.642C211.622 258.501 184.835 268.769 155.815 268.769C93.7568 268.769 44.1996 219.212 44.1996 157.154C44.1996 95.0962 93.7568 45.539 155.815 45.539L156.261 45.0925Z" fill="black"/>
</svg>
